<svg xmlns="http://www.w3.org/2000/svg" xmlns:xlink="http://www.w3.org/1999/xlink" width="152" zoomAndPan="magnify" viewBox="0 0 114 113.999999" height="152" preserveAspectRatio="xMidYMid meet" version="1.0"><defs><clipPath id="id1"><path d="M 0.914062 0.914062 L 113.414062 0.914062 L 113.414062 113.414062 L 0.914062 113.414062 Z M 0.914062 0.914062 " clip-rule="nonzero"/></clipPath><clipPath id="id2"><path d="M 113.414062 57.164062 C 113.414062 59.003906 113.320312 60.84375 113.140625 62.675781 C 112.960938 64.507812 112.691406 66.328125 112.332031 68.136719 C 111.972656 69.941406 111.523438 71.726562 110.988281 73.492188 C 110.457031 75.253906 109.835938 76.984375 109.128906 78.6875 C 108.425781 80.390625 107.636719 82.054688 106.769531 83.679688 C 105.902344 85.304688 104.957031 86.882812 103.933594 88.414062 C 102.910156 89.945312 101.8125 91.421875 100.644531 92.847656 C 99.476562 94.269531 98.238281 95.632812 96.9375 96.9375 C 95.632812 98.238281 94.269531 99.476562 92.847656 100.644531 C 91.421875 101.8125 89.945312 102.910156 88.414062 103.933594 C 86.882812 104.957031 85.304688 105.902344 83.679688 106.769531 C 82.054688 107.636719 80.390625 108.425781 78.6875 109.128906 C 76.984375 109.835938 75.253906 110.457031 73.492188 110.988281 C 71.726562 111.523438 69.941406 111.972656 68.136719 112.332031 C 66.328125 112.691406 64.507812 112.960938 62.675781 113.140625 C 60.84375 113.320312 59.003906 113.414062 57.164062 113.414062 C 55.320312 113.414062 53.480469 113.320312 51.648438 113.140625 C 49.816406 112.960938 47.996094 112.691406 46.1875 112.332031 C 44.382812 111.972656 42.597656 111.523438 40.832031 110.988281 C 39.070312 110.457031 37.339844 109.835938 35.636719 109.128906 C 33.933594 108.425781 32.269531 107.636719 30.644531 106.769531 C 29.019531 105.902344 27.441406 104.957031 25.910156 103.933594 C 24.378906 102.910156 22.902344 101.8125 21.476562 100.644531 C 20.054688 99.476562 18.691406 98.238281 17.386719 96.9375 C 16.085938 95.632812 14.847656 94.269531 13.679688 92.847656 C 12.511719 91.421875 11.414062 89.945312 10.390625 88.414062 C 9.367188 86.882812 8.421875 85.304688 7.554688 83.679688 C 6.6875 82.054688 5.898438 80.390625 5.195312 78.6875 C 4.488281 76.984375 3.867188 75.253906 3.335938 73.492188 C 2.800781 71.726562 2.351562 69.941406 1.992188 68.136719 C 1.632812 66.328125 1.363281 64.507812 1.183594 62.675781 C 1.003906 60.84375 0.914062 59.003906 0.914062 57.164062 C 0.914062 55.320312 1.003906 53.480469 1.183594 51.648438 C 1.363281 49.816406 1.632812 47.996094 1.992188 46.1875 C 2.351562 44.382812 2.800781 42.597656 3.335938 40.832031 C 3.867188 39.070312 4.488281 37.339844 5.195312 35.636719 C 5.898438 33.933594 6.6875 32.269531 7.554688 30.644531 C 8.421875 29.019531 9.367188 27.441406 10.390625 25.910156 C 11.414062 24.378906 12.511719 22.902344 13.679688 21.476562 C 14.847656 20.054688 16.085938 18.691406 17.386719 17.386719 C 18.691406 16.085938 20.054688 14.847656 21.476562 13.679688 C 22.902344 12.511719 24.378906 11.414062 25.910156 10.390625 C 27.441406 9.367188 29.019531 8.421875 30.644531 7.554688 C 32.269531 6.6875 33.933594 5.898438 35.636719 5.195312 C 37.339844 4.488281 39.070312 3.867188 40.832031 3.335938 C 42.597656 2.800781 44.382812 2.351562 46.1875 1.992188 C 47.996094 1.632812 49.816406 1.363281 51.648438 1.183594 C 53.480469 1.003906 55.320312 0.914062 57.164062 0.914062 C 59.003906 0.914062 60.84375 1.003906 62.675781 1.183594 C 64.507812 1.363281 66.328125 1.632812 68.136719 1.992188 C 69.941406 2.351562 71.726562 2.800781 73.492188 3.335938 C 75.253906 3.867188 76.984375 4.488281 78.6875 5.195312 C 80.390625 5.898438 82.054688 6.6875 83.679688 7.554688 C 85.304688 8.421875 86.882812 9.367188 88.414062 10.390625 C 89.945312 11.414062 91.421875 12.511719 92.847656 13.679688 C 94.269531 14.847656 95.632812 16.085938 96.9375 17.386719 C 98.238281 18.691406 99.476562 20.054688 100.644531 21.476562 C 101.8125 22.902344 102.910156 24.378906 103.933594 25.910156 C 104.957031 27.441406 105.902344 29.019531 106.769531 30.644531 C 107.636719 32.269531 108.425781 33.933594 109.128906 35.636719 C 109.835938 37.339844 110.457031 39.070312 110.988281 40.832031 C 111.523438 42.597656 111.972656 44.382812 112.332031 46.1875 C 112.691406 47.996094 112.960938 49.816406 113.140625 51.648438 C 113.320312 53.480469 113.414062 55.320312 113.414062 57.164062 Z M 113.414062 57.164062 " clip-rule="nonzero"/></clipPath><radialGradient gradientTransform="matrix(1, 0, 0, 1, 0.912123, 0.912126)" gradientUnits="userSpaceOnUse" r="56.249996" cx="56.249996" id="id3" cy="56.249996" fx="56.249996" fy="56.249996"><stop stop-opacity="1" stop-color="rgb(100%, 99.842834%, 0%)" offset="0"/><stop stop-opacity="1" stop-color="rgb(100%, 99.569702%, 0%)" offset="0.015625"/><stop stop-opacity="1" stop-color="rgb(100%, 99.334717%, 0%)" offset="0.0273438"/><stop stop-opacity="1" stop-color="rgb(100%, 99.101257%, 0%)" offset="0.0390625"/><stop stop-opacity="1" stop-color="rgb(100%, 98.866272%, 0%)" offset="0.0507812"/><stop stop-opacity="1" stop-color="rgb(100%, 98.631287%, 0%)" offset="0.0625"/><stop stop-opacity="1" stop-color="rgb(100%, 98.397827%, 0%)" offset="0.0742188"/><stop stop-opacity="1" stop-color="rgb(100%, 98.162842%, 0%)" offset="0.0859375"/><stop stop-opacity="1" stop-color="rgb(100%, 97.929382%, 0%)" offset="0.0976562"/><stop stop-opacity="1" stop-color="rgb(100%, 97.694397%, 0%)" offset="0.109375"/><stop stop-opacity="1" stop-color="rgb(100%, 97.459412%, 0%)" offset="0.121094"/><stop stop-opacity="1" stop-color="rgb(100%, 97.225952%, 0%)" offset="0.132812"/><stop stop-opacity="1" stop-color="rgb(100%, 96.990967%, 0%)" offset="0.144531"/><stop stop-opacity="1" stop-color="rgb(100%, 96.757507%, 0%)" offset="0.15625"/><stop stop-opacity="1" stop-color="rgb(100%, 96.522522%, 0%)" offset="0.167969"/><stop stop-opacity="1" stop-color="rgb(100%, 96.287537%, 0%)" offset="0.179688"/><stop stop-opacity="1" stop-color="rgb(100%, 96.054077%, 0%)" offset="0.191406"/><stop stop-opacity="1" stop-color="rgb(100%, 95.819092%, 0%)" offset="0.203125"/><stop stop-opacity="1" stop-color="rgb(100%, 95.585632%, 0%)" offset="0.214844"/><stop stop-opacity="1" stop-color="rgb(100%, 95.350647%, 0%)" offset="0.226562"/><stop stop-opacity="1" stop-color="rgb(100%, 95.115662%, 0%)" offset="0.238281"/><stop stop-opacity="1" stop-color="rgb(100%, 94.882202%, 0%)" offset="0.25"/><stop stop-opacity="1" stop-color="rgb(100%, 94.569397%, 0%)" offset="0.261719"/><stop stop-opacity="1" stop-color="rgb(100%, 94.178772%, 0%)" offset="0.28125"/><stop stop-opacity="1" stop-color="rgb(100%, 93.788147%, 0%)" offset="0.300781"/><stop stop-opacity="1" stop-color="rgb(100%, 93.397522%, 0%)" offset="0.320312"/><stop stop-opacity="1" stop-color="rgb(100%, 93.006897%, 0%)" offset="0.339844"/><stop stop-opacity="1" stop-color="rgb(100%, 92.616272%, 0%)" offset="0.359375"/><stop stop-opacity="1" stop-color="rgb(100%, 92.263794%, 0%)" offset="0.378906"/><stop stop-opacity="1" stop-color="rgb(100%, 91.952515%, 0%)" offset="0.394531"/><stop stop-opacity="1" stop-color="rgb(100%, 91.639709%, 0%)" offset="0.410156"/><stop stop-opacity="1" stop-color="rgb(100%, 91.326904%, 0%)" offset="0.425781"/><stop stop-opacity="1" stop-color="rgb(100%, 91.014099%, 0%)" offset="0.441406"/><stop stop-opacity="1" stop-color="rgb(100%, 90.701294%, 0%)" offset="0.457031"/><stop stop-opacity="1" stop-color="rgb(100%, 90.390015%, 0%)" offset="0.472656"/><stop stop-opacity="1" stop-color="rgb(100%, 90.077209%, 0%)" offset="0.488281"/><stop stop-opacity="1" stop-color="rgb(100%, 89.804077%, 0%)" offset="0.503906"/><stop stop-opacity="1" stop-color="rgb(100%, 89.569092%, 0%)" offset="0.515625"/><stop stop-opacity="1" stop-color="rgb(100%, 89.335632%, 0%)" offset="0.527344"/><stop stop-opacity="1" stop-color="rgb(100%, 89.100647%, 0%)" offset="0.539062"/><stop stop-opacity="1" stop-color="rgb(100%, 88.865662%, 0%)" offset="0.550781"/><stop stop-opacity="1" stop-color="rgb(100%, 88.632202%, 0%)" offset="0.5625"/><stop stop-opacity="1" stop-color="rgb(100%, 88.397217%, 0%)" offset="0.574219"/><stop stop-opacity="1" stop-color="rgb(100%, 88.163757%, 0%)" offset="0.585938"/><stop stop-opacity="1" stop-color="rgb(100%, 87.928772%, 0%)" offset="0.597656"/><stop stop-opacity="1" stop-color="rgb(100%, 87.693787%, 0%)" offset="0.609375"/><stop stop-opacity="1" stop-color="rgb(100%, 87.460327%, 0%)" offset="0.621094"/><stop stop-opacity="1" stop-color="rgb(100%, 87.147522%, 0%)" offset="0.632812"/><stop stop-opacity="1" stop-color="rgb(100%, 86.756897%, 0%)" offset="0.652344"/><stop stop-opacity="1" stop-color="rgb(100%, 86.366272%, 0%)" offset="0.671875"/><stop stop-opacity="1" stop-color="rgb(100%, 86.013794%, 0%)" offset="0.691406"/><stop stop-opacity="1" stop-color="rgb(100%, 85.702515%, 0%)" offset="0.707031"/><stop stop-opacity="1" stop-color="rgb(100%, 85.389709%, 0%)" offset="0.722656"/><stop stop-opacity="1" stop-color="rgb(100%, 85.076904%, 0%)" offset="0.738281"/><stop stop-opacity="1" stop-color="rgb(100%, 84.803772%, 0%)" offset="0.753906"/><stop stop-opacity="1" stop-color="rgb(100%, 84.568787%, 0%)" offset="0.765625"/><stop stop-opacity="1" stop-color="rgb(100%, 84.335327%, 0%)" offset="0.777344"/><stop stop-opacity="1" stop-color="rgb(100%, 84.100342%, 0%)" offset="0.789062"/><stop stop-opacity="1" stop-color="rgb(100%, 83.866882%, 0%)" offset="0.800781"/><stop stop-opacity="1" stop-color="rgb(100%, 83.631897%, 0%)" offset="0.8125"/><stop stop-opacity="1" stop-color="rgb(100%, 83.319092%, 0%)" offset="0.824219"/><stop stop-opacity="1" stop-color="rgb(100%, 82.928467%, 0%)" offset="0.84375"/><stop stop-opacity="1" stop-color="rgb(100%, 82.577515%, 0%)" offset="0.863281"/><stop stop-opacity="1" stop-color="rgb(100%, 82.304382%, 0%)" offset="0.878906"/><stop stop-opacity="1" stop-color="rgb(100%, 82.069397%, 0%)" offset="0.890625"/><stop stop-opacity="1" stop-color="rgb(100%, 81.834412%, 0%)" offset="0.902344"/><stop stop-opacity="1" stop-color="rgb(100%, 81.523132%, 0%)" offset="0.914062"/><stop stop-opacity="1" stop-color="rgb(100%, 81.170654%, 0%)" offset="0.933594"/><stop stop-opacity="1" stop-color="rgb(100%, 80.897522%, 0%)" offset="0.949219"/><stop stop-opacity="1" stop-color="rgb(100%, 80.584717%, 0%)" offset="0.960938"/><stop stop-opacity="1" stop-color="rgb(100%, 80.194092%, 0%)" offset="0.980469"/><stop stop-opacity="1" stop-color="rgb(100%, 79.998779%, 0%)" offset="1"/></radialGradient></defs><g clip-path="url(#id1)"><g clip-path="url(#id2)"><path fill="url(#id3)" d="M 0.914062 0.914062 L 0.914062 113.414062 L 113.414062 113.414062 L 113.414062 0.914062 Z M 0.914062 0.914062 " fill-rule="nonzero"/></g></g></svg>